<svg xmlns="http://www.w3.org/2000/svg" xmlns:xlink="http://www.w3.org/1999/xlink" width="206pt" height="124" viewBox="0 0 206 92.73"><g id="graph0" class="graph" transform="scale(1 1) rotate(0) translate(4 88.7279)"><title>join</title><polygon fill="#fff" stroke="none" points="-4 4 -4 -88.728 202 -88.728 202 4 -4 4"/><g id="node4" class="node"><title>Activity</title><ellipse cx="99" cy="-18" fill="none" stroke="#000" rx="40.094" ry="18"/><text x="99" y="-14.3" font-family="Times,serif" font-size="14" text-anchor="middle">Activity</text></g><g id="edge1" class="edge"><title>a-&gt;Activity</title><path fill="none" stroke="#000" d="M33.6445,-71.9778C42.4332,-64.8537 58.4442,-51.875 72.4186,-40.5472"/><polygon fill="#000" stroke="#000" points="74.777 -43.141 80.341 -34.125 70.369 -37.703 74.777 -43.141"/></g><g id="edge2" class="edge"><title>b-&gt;Activity</title><path fill="none" stroke="#000" d="M99,-71.9778C99,-66.0508 99,-56.0715 99,-46.3619"/><polygon fill="#000" stroke="#000" points="102.5 -46.136 99 -36.136 95.5 -46.136 102.5 -46.136"/></g><g id="edge3" class="edge"><title>c-&gt;Activity</title><path fill="none" stroke="#000" d="M164.355,-71.9778C155.567,-64.8537 139.556,-51.875 125.581,-40.5472"/><polygon fill="#000" stroke="#000" points="127.631 -37.703 117.659 -34.125 123.223 -43.141 127.631 -37.703"/></g></g></svg>