<svg xmlns="http://www.w3.org/2000/svg" xmlns:xlink="http://www.w3.org/1999/xlink" width="188pt" height="188pt" viewBox="0 0 188.24 188"><g id="graph0" class="graph" transform="scale(1 1) rotate(0) translate(4 184)"><title>order</title><polygon fill="#fff" stroke="none" points="-4 4 -4 -184 184.243 -184 184.243 4 -4 4"/><g id="node1" class="node"><title>Draft</title><ellipse cx="85.397" cy="-162" fill="#73fa79" stroke="#000" rx="30.595" ry="18"/><text x="85.397" y="-158.3" font-family="Times,serif" font-size="14" text-anchor="middle">Draft</text></g><g id="node4" class="node"><title>Confirmed</title><ellipse cx="85.397" cy="-90" fill="none" stroke="#000" rx="51.991" ry="18"/><text x="85.397" y="-86.3" font-family="Times,serif" font-size="14" text-anchor="middle">Confirmed</text></g><g id="edge1" class="edge"><title>Draft-&gt;Confirmed</title><path fill="none" stroke="#000" d="M85.3968,-143.697C85.3968,-135.983 85.3968,-126.712 85.3968,-118.112"/><polygon fill="#000" stroke="#000" points="88.897 -118.104 85.397 -108.104 81.897 -118.104 88.897 -118.104"/></g><g id="node2" class="node"><title>Closed</title><ellipse cx="36.397" cy="-18" fill="#98c7df" stroke="#000" rx="36.294" ry="18"/><text x="36.397" y="-14.3" font-family="Times,serif" font-size="14" text-anchor="middle">Closed</text></g><g id="node3" class="node"><title>Canceled</title><ellipse cx="135.397" cy="-18" fill="#98c7df" stroke="#000" rx="44.693" ry="18"/><text x="135.397" y="-14.3" font-family="Times,serif" font-size="14" text-anchor="middle">Canceled</text></g><g id="edge2" class="edge"><title>Confirmed-&gt;Closed</title><path fill="none" stroke="#000" d="M73.7845,-72.411C67.8042,-63.8677 60.3917,-53.2785 53.7479,-43.7874"/><polygon fill="#000" stroke="#000" points="56.528 -41.655 47.926 -35.47 50.793 -45.669 56.528 -41.655"/></g><g id="edge3" class="edge"><title>Confirmed-&gt;Canceled</title><path fill="none" stroke="#000" d="M97.2461,-72.411C103.348,-63.8677 110.912,-53.2785 117.692,-43.7874"/><polygon fill="#000" stroke="#000" points="120.668 -45.642 123.633 -35.47 114.972 -41.573 120.668 -45.642"/></g></g></svg>