<svg xmlns="http://www.w3.org/2000/svg" xmlns:xlink="http://www.w3.org/1999/xlink" width="260pt" height="388" viewBox="0 0 259.79 291"><g id="graph0" class="graph" transform="scale(1 1) rotate(0) translate(4 287)"><title>order</title><polygon fill="#fff" stroke="none" points="-4 4 -4 -287 255.792 -287 255.792 4 -4 4"/><g id="node1" class="node"><title>Draft</title><ellipse cx="85.397" cy="-265" fill="#73fa79" stroke="#000" rx="30.595" ry="18"/><text x="85.397" y="-261.3" font-family="Times,serif" font-size="14" text-anchor="middle">Draft</text></g><g id="node4" class="node"><title>Confirmed</title><ellipse cx="85.397" cy="-91" fill="none" stroke="#000" rx="51.991" ry="18"/><text x="85.397" y="-87.3" font-family="Times,serif" font-size="14" text-anchor="middle">Confirmed</text></g><g id="edge1" class="edge"><title>Draft-&gt;Confirmed</title><path fill="none" stroke="#000" d="M72.5816,-248.399C62.7132,-235.312 49.8641,-215.656 44.3968,-196 40.1092,-180.585 40.1092,-175.415 44.3968,-160 48.7071,-144.503 57.6054,-129.007 66.0142,-116.73"/><polygon fill="#000" stroke="#000" points="68.999 -118.572 71.978 -108.405 63.309 -114.496 68.999 -118.572"/><text x="94.397" y="-174.3" font-family="Times,serif" font-size="14" text-anchor="middle">discount &lt;= 15%</text></g><g id="node5" class="node"><title>Validation</title><ellipse cx="202.397" cy="-178" fill="none" stroke="#000" rx="49.291" ry="18"/><text x="202.397" y="-174.3" font-family="Times,serif" font-size="14" text-anchor="middle">Validation</text></g><g id="edge2" class="edge"><title>Draft-&gt;Validation</title><path fill="none" stroke="#000" d="M103.936,-250.531C122.48,-237.059 151.286,-216.131 172.959,-200.386"/><polygon fill="#000" stroke="#000" points="175.139 -203.129 181.172 -194.42 171.024 -197.466 175.139 -203.129"/><text x="195.897" y="-217.8" font-family="Times,serif" font-size="14" text-anchor="middle">discount &gt; 15%</text></g><g id="node2" class="node"><title>Closed</title><ellipse cx="36.397" cy="-18" fill="#98c7df" stroke="#000" rx="36.294" ry="18"/><text x="36.397" y="-14.3" font-family="Times,serif" font-size="14" text-anchor="middle">Closed</text></g><g id="node3" class="node"><title>Canceled</title><ellipse cx="135.397" cy="-18" fill="#98c7df" stroke="#000" rx="44.693" ry="18"/><text x="135.397" y="-14.3" font-family="Times,serif" font-size="14" text-anchor="middle">Canceled</text></g><g id="edge4" class="edge"><title>Confirmed-&gt;Closed</title><path fill="none" stroke="#000" d="M73.7845,-73.174C67.7175,-64.3831 60.1766,-53.4564 53.4596,-43.7236"/><polygon fill="#000" stroke="#000" points="56.149 -41.459 47.588 -35.217 50.388 -45.435 56.149 -41.459"/></g><g id="edge5" class="edge"><title>Confirmed-&gt;Canceled</title><path fill="none" stroke="#000" d="M97.2461,-73.174C103.348,-64.5087 110.912,-53.7682 117.692,-44.1415"/><polygon fill="#000" stroke="#000" points="120.736 -45.897 123.633 -35.705 115.013 -41.866 120.736 -45.897"/></g><g id="edge3" class="edge"><title>Validation-&gt;Confirmed</title><path fill="none" stroke="#000" d="M181.209,-161.607C162.688,-148.152 135.604,-128.475 114.953,-113.472"/><polygon fill="#000" stroke="#000" points="116.97 -110.612 106.822 -107.566 112.856 -116.275 116.97 -110.612"/><text x="170.397" y="-130.8" font-family="Times,serif" font-size="14" text-anchor="middle">Accept</text></g></g></svg>