<svg xmlns="http://www.w3.org/2000/svg" xmlns:xlink="http://www.w3.org/1999/xlink" width="206pt" height="124" viewBox="0 0 206 92.73"><g id="graph0" class="graph" transform="scale(1 1) rotate(0) translate(4 88.7279)"><title>split</title><polygon fill="#fff" stroke="none" points="-4 4 -4 -88.728 202 -88.728 202 4 -4 4"/><g id="node4" class="node"><title>Activity</title><ellipse cx="99" cy="-66.728" fill="none" stroke="#000" rx="40.094" ry="18"/><text x="99" y="-63.028" font-family="Times,serif" font-size="14" text-anchor="middle">Activity</text></g><g id="edge1" class="edge"><title>Activity-&gt;a</title><path fill="none" stroke="#000" d="M80.4582,-50.6978C68.3594,-40.8903 52.7894,-28.2691 41.577,-19.1802"/><polygon fill="#000" stroke="#000" points="43.641 -16.348 33.669 -12.77 39.233 -21.786 43.641 -16.348"/></g><g id="edge2" class="edge"><title>Activity-&gt;b</title><path fill="none" stroke="#000" d="M99,-48.5325C99,-40.494 99,-30.9869 99,-23.1351"/><polygon fill="#000" stroke="#000" points="102.5 -22.894 99 -12.894 95.5 -22.894 102.5 -22.894"/></g><g id="edge3" class="edge"><title>Activity-&gt;c</title><path fill="none" stroke="#000" d="M117.542,-50.6978C129.641,-40.8903 145.211,-28.2691 156.423,-19.1802"/><polygon fill="#000" stroke="#000" points="158.767 -21.786 164.331 -12.77 154.359 -16.348 158.767 -21.786"/></g></g></svg>